<svg width="100" height="100" viewBox="0 0 100 100" fill="none" xmlns="http://www.w3.org/2000/svg">
<path d="M10.4166 50C10.4166 31.3416 10.4166 22.0083 16.2125 16.2125C22.0083 10.4166 31.3375 10.4166 50 10.4166C68.6583 10.4166 77.9916 10.4166 83.7875 16.2125C89.5833 22.0083 89.5833 31.3375 89.5833 50C89.5833 68.6583 89.5833 77.9916 83.7875 83.7875C77.9916 89.5833 68.6625 89.5833 50 89.5833C31.3416 89.5833 22.0083 89.5833 16.2125 83.7875C10.4166 77.9916 10.4166 68.6625 10.4166 50Z" stroke="#D10033" stroke-width="3" stroke-linecap="round" stroke-linejoin="round"/>
<path d="M25 56.25L31.25 37.5L39.0625 56.25M25 56.25L22.9166 62.5M25 56.25H39.0625M39.0625 56.25L41.6666 62.5M52.0833 50V40.4167C52.0833 39.6417 52.0833 39.25 52.1833 38.9375C52.2859 38.6252 52.4609 38.3415 52.6941 38.1098C52.9273 37.8781 53.212 37.7048 53.525 37.6042C53.8333 37.5 54.2208 37.5 55 37.5H60.4166C62.0742 37.5 63.6639 38.1585 64.836 39.3306C66.0081 40.5027 66.6666 42.0924 66.6666 43.75C66.6666 45.4076 66.0081 46.9973 64.836 48.1694C63.6639 49.3415 62.0742 50 60.4166 50H52.0833ZM52.0833 50V62.5M77.0833 37.5V62.5" stroke="#D10033" stroke-width="3" stroke-linecap="round" stroke-linejoin="round"/>
</svg>
