<svg width="100" height="100" viewBox="0 0 100 100" fill="none" xmlns="http://www.w3.org/2000/svg">
<path d="M50 14C70.051 14 85.9998 28.4064 86 45.833C86 50.9605 83.9626 55.8782 80.3369 59.5039C76.7113 63.1294 71.7943 65.1669 66.667 65.167H59.292L58.9072 65.1758C56.9918 65.2708 55.1741 66.074 53.8115 67.4365C52.3581 68.8899 51.542 70.8616 51.542 72.917L51.5508 73.2861C51.6409 75.1231 52.3966 76.7799 53.4834 78.0557L53.5029 78.0791L53.5225 78.1006C54.2782 78.9193 54.75 80.0187 54.75 81.25C54.75 82.5098 54.2492 83.7176 53.3584 84.6084C52.4676 85.4992 51.2598 86 50 86L49.1064 85.9893C39.8825 85.7605 31.0844 81.9965 24.5439 75.4561C17.7926 68.7047 14 59.5478 14 50C14 40.4522 17.7926 31.2953 24.5439 24.5439C31.2953 17.7926 40.4522 14 50 14ZM27.083 36C25.0279 36.0001 23.0568 36.8164 21.6035 38.2695C20.1501 39.7229 19.333 41.6946 19.333 43.75C19.333 45.8054 20.1501 47.7771 21.6035 49.2305C22.9661 50.5929 24.7838 51.3953 26.6992 51.4902L27.083 51.5C29.1384 51.5 31.1101 50.6838 32.5635 49.2305C34.0169 47.7771 34.833 45.8054 34.833 43.75C34.833 41.6946 34.0169 39.7229 32.5635 38.2695C31.201 36.9071 29.3832 36.1048 27.4678 36.0098L27.083 36ZM72.917 36C70.8616 36 68.8899 36.8162 67.4365 38.2695C65.9831 39.7229 65.167 41.6946 65.167 43.75C65.167 45.8054 65.9831 47.7771 67.4365 49.2305C68.799 50.5929 70.6168 51.3952 72.5322 51.4902L72.917 51.5C74.9721 51.4999 76.9432 50.6836 78.3965 49.2305C79.8499 47.7771 80.667 45.8054 80.667 43.75C80.667 41.6946 79.8499 39.7229 78.3965 38.2695C77.0339 36.9071 75.2162 36.1047 73.3008 36.0098L72.917 36ZM39.583 19.333C37.5277 19.3331 35.5568 20.1502 34.1035 21.6035C32.6502 23.0568 31.8331 25.0277 31.833 27.083L31.8428 27.4678C31.9378 29.3832 32.741 31.2009 34.1035 32.5635C35.5568 34.0167 37.5278 34.8329 39.583 34.833C41.6384 34.833 43.6101 34.0169 45.0635 32.5635C46.5169 31.1101 47.333 29.1384 47.333 27.083L47.3242 26.6992C47.2292 24.7837 46.426 22.9661 45.0635 21.6035C43.7009 20.241 41.8832 19.4378 39.9678 19.3428L39.583 19.333ZM60.417 19.333C58.3616 19.333 56.3899 20.1501 54.9365 21.6035C53.4833 23.0568 52.6671 25.0278 52.667 27.083L52.6758 27.4678C52.7708 29.3832 53.574 31.2009 54.9365 32.5635C56.3899 34.0169 58.3616 34.833 60.417 34.833C62.4722 34.8329 64.4432 34.0167 65.8965 32.5635C67.3499 31.1101 68.167 29.1384 68.167 27.083L68.1572 26.6992C68.0622 24.7836 67.2591 22.9661 65.8965 21.6035C64.4432 20.1502 62.4723 19.3331 60.417 19.333Z" fill="white" stroke="#D10033" stroke-width="3"/>
</svg>
