<svg width="100" height="100" viewBox="0 0 100 100" fill="none" xmlns="http://www.w3.org/2000/svg">
<path d="M53.675 49.9999C58.55 49.9999 62.5 53.7291 62.5 58.3333C62.5 62.9374 58.55 66.6666 53.675 66.6666H44.1667C41.025 66.6666 39.4542 66.6666 38.475 65.6916C37.5 64.7083 37.5 63.1416 37.5 59.9999V49.9999M53.675 49.9999C58.55 49.9999 62.5 46.2708 62.5 41.6666C62.5 37.0624 58.55 33.3333 53.675 33.3333H44.1667C41.025 33.3333 39.4542 33.3333 38.475 34.3083C37.5 35.2916 37.5 36.8583 37.5 39.9999V49.9999M53.675 49.9999H37.5" stroke="#D10033" stroke-width="3" stroke-linecap="round" stroke-linejoin="round"/>
<path d="M91.6667 50C89.4566 50 87.337 49.122 85.7741 47.5592C84.2113 45.9964 83.3334 43.8768 83.3334 41.6666V33.3333C83.3334 19.5416 80.4584 16.6666 66.6667 16.6666H33.3334C19.5417 16.6666 16.6667 19.5416 16.6667 33.3333V41.6666C16.6667 43.8768 15.7887 45.9964 14.2259 47.5592C12.6631 49.122 10.5435 50 8.33337 50M8.33337 50C10.5435 50 12.6631 50.8779 14.2259 52.4407C15.7887 54.0035 16.6667 56.1232 16.6667 58.3333V66.6666C16.6667 80.4583 19.5417 83.3333 33.3334 83.3333H66.6667C80.4584 83.3333 83.3334 80.4583 83.3334 66.6666V58.3333C83.3334 56.1232 84.2113 54.0035 85.7741 52.4407C87.337 50.8779 89.4566 50 91.6667 50" stroke="#D10033" stroke-width="3" stroke-linecap="round" stroke-linejoin="round"/>
</svg>
