<svg width="100" height="100" viewBox="0 0 100 100" fill="none" xmlns="http://www.w3.org/2000/svg">
<path d="M91.1208 54.8875C90.9958 54.8875 90.8708 54.9708 90.7874 55.1791C89.9499 57.6 88.7791 59.0625 87.8208 59.0625C87.2791 59.0625 87.0708 58.4375 87.0708 57.5208C87.0708 55.1375 88.4874 50.0833 89.1958 47.7458C89.2791 47.4541 89.3208 47.2041 89.3208 46.9958C89.3208 46.325 88.9458 45.9875 88.0291 45.9875C87.0708 45.9875 85.9833 46.3625 84.9791 48.1625C84.6458 46.575 83.5624 45.9041 82.0541 45.9041C80.3458 45.9041 78.6708 47.0333 77.2958 48.8291C75.9166 50.625 74.2874 51.2125 73.0749 50.9166C73.9499 48.7916 74.2833 47.1583 74.2833 45.9875C74.2833 44.1125 73.3666 42.9833 71.8666 42.9833C69.6083 42.9833 68.3124 45.1541 68.3124 47.4083C68.3124 49.1625 69.1041 50.9583 70.8624 51.8375C69.3999 55.1375 67.2708 58.1458 66.4333 58.1458C65.3916 58.1458 65.0583 53.0083 65.1416 49.3291C65.1833 47.2458 65.3499 47.1208 65.3499 46.4916C65.3499 46.1166 65.0999 45.8666 64.1374 45.8666C61.9208 45.8666 61.2124 47.7416 61.1291 49.9166C61.0874 50.75 60.9624 51.5416 60.7541 52.3375C59.8374 55.6375 57.9124 58.1875 56.6583 58.1875C56.0749 58.1875 55.9083 57.6041 55.9083 56.85C55.9083 54.4666 57.2416 51.4625 57.2416 48.9125C57.2416 47.0375 56.4083 45.8625 54.8666 45.8625C53.0249 45.8625 50.6458 48.0375 48.3499 52.0875C49.0999 48.9958 49.3916 45.9916 47.1791 45.9916C46.6791 45.9916 46.2194 46.1166 45.7999 46.3666C45.658 46.4324 45.5387 46.5387 45.4571 46.6722C45.3755 46.8057 45.3353 46.9603 45.3416 47.1166C45.5499 50.4166 42.6666 58.8958 39.9541 58.8958C39.4541 58.8958 39.2041 58.3541 39.2041 57.4791C39.2041 55.0958 40.6208 50.0416 41.3291 47.7C41.407 47.4431 41.4491 47.1767 41.4541 46.9083C41.4541 46.2833 41.0791 45.95 40.1624 45.95C39.2041 45.95 38.1166 46.325 37.1124 48.1166C36.7374 46.5333 35.6958 45.8666 34.1874 45.8666C31.7249 45.8666 29.0083 48.45 27.7958 51.8375C26.1708 56.35 22.9541 60.7333 18.5666 60.7333C14.5999 60.7333 12.5083 57.4333 12.5083 52.2125C12.5083 44.6541 18.0666 38.5125 22.1583 38.5125C24.1208 38.5125 25.0416 39.7625 25.0416 41.6875C25.0416 44.025 23.7499 45.0708 23.7499 45.9875C23.7499 46.2375 23.9583 46.5291 24.4166 46.5291C26.2083 46.5291 28.2999 44.4458 28.2999 41.5625C28.2999 38.6791 26.0416 36.6333 21.9499 36.6333C15.1416 36.6333 8.33325 43.4416 8.33325 52.2166C8.33325 59.1875 11.7583 63.3666 17.6916 63.3666C21.7416 63.3666 25.2916 60.2333 27.1708 56.5583C27.3791 59.6083 28.7583 61.1916 30.8874 61.1916C32.7666 61.1916 34.2708 60.0666 35.4416 58.1041C35.8999 60.1458 37.0666 61.15 38.6166 61.15C40.3666 61.15 41.8749 60.025 43.2499 57.9791C43.2499 59.6041 43.5833 61.15 45.0083 61.15C45.6749 61.15 46.4666 60.9833 46.5916 60.4C48.0958 54.2583 51.7749 49.2041 52.8999 49.2041C53.2333 49.2041 53.3166 49.5375 53.3166 49.9125C53.3166 51.5875 52.1499 55.0125 52.1499 57.1833C52.1499 59.5666 53.1499 61.1083 55.2416 61.1083C57.5374 61.1083 59.8749 58.3125 61.4208 54.175C61.9208 58.0208 62.9666 61.1083 64.5958 61.1083C66.5999 61.1083 70.2333 56.85 72.4083 52.3375C73.2416 52.4625 74.5374 52.4208 75.7916 51.5458C75.2499 52.8791 74.9583 54.3416 74.9583 55.7625C74.9583 59.9416 76.9583 61.1083 78.6708 61.1083C80.5499 61.1083 82.0541 59.9833 83.2249 58.0208C83.5999 59.7708 84.5999 61.0666 86.3999 61.0666C89.1999 61.0666 91.6624 58.1875 91.6624 55.8041C91.7041 55.3041 91.4124 54.8875 91.1208 54.8875ZM32.6416 58.8541C31.5166 58.8541 31.0583 57.7291 31.0583 56.0125C31.0583 53.05 33.0999 48.0791 35.2333 48.0791C36.1499 48.0791 36.5249 49.1625 36.5249 50.5416C36.5249 53.55 34.6083 58.8541 32.6416 58.8541ZM71.6124 50C70.9458 49.2083 70.6958 48.0791 70.6958 47.1166C70.6958 45.9083 71.1541 44.9041 71.6541 44.9041C72.1541 44.9041 72.3624 45.4041 72.3624 46.1541C72.3208 47.325 71.9041 49.1208 71.6124 50ZM80.4249 58.8541C79.2999 58.8541 78.8416 57.5208 78.8416 56.0125C78.8416 53.1333 80.8833 48.0791 83.0166 48.0791C83.9333 48.0791 84.2666 49.1625 84.2666 50.5416C84.3083 53.55 82.4333 58.8541 80.4249 58.8541Z" fill="#D10033"/>
</svg>
