<svg width="100" height="100" viewBox="0 0 100 100" fill="none" xmlns="http://www.w3.org/2000/svg">
<path d="M86.475 19.9667L74.6416 79.5917C74.4121 80.7477 73.8604 81.8153 73.0502 82.6713C72.24 83.5272 71.2042 84.1366 70.0625 84.4292L53.1083 88.7833C51.0691 89.3068 48.9308 89.3068 46.8916 88.7833L29.9333 84.4292C28.7936 84.1356 27.76 83.5262 26.9514 82.6711C26.1428 81.8161 25.592 80.7501 25.3625 79.5958L13.525 19.9667C13.3451 19.0605 13.3684 18.1258 13.5931 17.2297C13.8178 16.3337 14.2384 15.4985 14.8245 14.7845C15.4107 14.0704 16.1478 13.4952 16.9829 13.1002C17.818 12.7052 18.7303 12.5002 19.6541 12.5H80.3458C81.2696 12.5002 82.1819 12.7052 83.017 13.1002C83.8521 13.4952 84.5892 14.0704 85.1754 14.7845C85.7615 15.4985 86.1821 16.3337 86.4068 17.2297C86.6315 18.1258 86.6548 19.0605 86.475 19.9667Z" stroke="#D10033" stroke-width="3" stroke-linecap="round" stroke-linejoin="round"/>
<path d="M66.6583 49.5458L62.9458 68.1208C62.8052 68.8231 62.486 69.4774 62.0189 70.0204C61.5518 70.5634 60.9526 70.9768 60.2791 71.2208L51.4208 74.4291C50.5041 74.7611 49.5 74.7611 48.5833 74.4291L39.6416 71.1916C38.9821 70.942 38.3976 70.5276 37.9439 69.9878C37.4902 69.448 37.1824 68.8009 37.05 68.1083L36.125 63.4666M66.6583 49.5458L70.2375 31.6624C70.3103 31.2994 70.3015 30.9248 70.2119 30.5655C70.1223 30.2063 69.954 29.8714 69.7191 29.5852C69.4843 29.2989 69.1888 29.0684 68.8541 28.9103C68.5193 28.7521 68.1535 28.6703 67.7833 28.6708H29.1666M66.6583 49.5458H33.3416" stroke="#D10033" stroke-width="3" stroke-linecap="round" stroke-linejoin="round"/>
</svg>
