<svg width="100" height="100" viewBox="0 0 100 100" fill="none" xmlns="http://www.w3.org/2000/svg">
<path d="M49.9999 64.9043L35.2541 50.1627L38.2041 47.1627L47.9166 56.8752V20.8335H52.0833V56.8752L61.7916 47.1668L64.7457 50.1627L49.9999 64.9043ZM27.5666 79.1668C25.6471 79.1668 24.0458 78.5252 22.7624 77.2418C21.4791 75.9585 20.836 74.3557 20.8333 72.4335V62.3377H24.9999V72.4335C24.9999 73.0752 25.2666 73.6641 25.7999 74.2002C26.3333 74.7363 26.9208 75.0029 27.5624 75.0002H72.4374C73.0763 75.0002 73.6638 74.7335 74.1999 74.2002C74.736 73.6668 75.0027 73.0779 74.9999 72.4335V62.3377H79.1666V72.4335C79.1666 74.3529 78.5249 75.9543 77.2416 77.2377C75.9583 78.521 74.3555 79.164 72.4333 79.1668H27.5666Z" fill="#D10033"/>
</svg>
