<svg width="100" height="100" viewBox="0 0 100 100" fill="none" xmlns="http://www.w3.org/2000/svg">
<path d="M19.2333 79.1668C17.3139 79.1668 15.7125 78.5252 14.4292 77.2418C13.1458 75.9585 12.5028 74.3557 12.5 72.4335V27.5668C12.5 25.6474 13.1431 24.046 14.4292 22.7627C15.7153 21.4793 17.3153 20.8363 19.2292 20.8335H80.7708C82.6875 20.8335 84.2875 21.4766 85.5708 22.7627C86.8542 24.0488 87.4972 25.6502 87.5 27.5668V72.4377C87.5 74.3543 86.8569 75.9557 85.5708 77.2418C84.2847 78.5279 82.6847 79.1696 80.7708 79.1668H19.2333ZM50 50.4835L16.6667 28.6877V72.4377C16.6667 73.1849 16.9069 73.7988 17.3875 74.2793C17.8681 74.7599 18.4833 75.0002 19.2333 75.0002H80.7708C81.5181 75.0002 82.1319 74.7599 82.6125 74.2793C83.0931 73.7988 83.3333 73.1835 83.3333 72.4335V28.6835L50 50.4835ZM50 45.8335L82.05 25.0002H17.95L50 45.8335ZM16.6667 28.6877V25.0002V72.4377C16.6667 73.1849 16.9069 73.7988 17.3875 74.2793C17.8681 74.7599 18.4833 75.0002 19.2333 75.0002H16.6667V28.6877Z" fill="#D10033"/>
</svg>
