<svg width="100" height="100" viewBox="0 0 100 100" fill="none" xmlns="http://www.w3.org/2000/svg">
<path d="M85.3874 28.0208C86.4541 26.6292 88.104 25.8125 89.8582 25.8125H91.2749L72.9749 49.7417L91.6665 74.1792H90.2499C89.3851 74.1795 88.5318 73.9805 87.7564 73.5975C86.981 73.2145 86.3044 72.6578 85.779 71.9708L70.879 52.4875L55.9749 71.9708C55.45 72.6573 54.774 73.2136 53.9994 73.5966C53.2248 73.9795 52.3723 74.1789 51.5082 74.1792H50.0916L68.7791 49.7417L50.4832 25.8125H51.8999C53.6499 25.8125 55.3041 26.6292 56.3666 28.0208L70.8749 46.9958L85.3874 28.0208Z" fill="#D10033"/>
<path fill-rule="evenodd" clip-rule="evenodd" d="M23.1791 71.4416C31.1958 74.3666 39.5791 71.05 43.8416 64.5791C44.6749 63.3083 46.0499 62.5041 47.5749 62.5041H48.6374C44.7208 72.6583 33.1374 78.5708 22.1249 74.6083C13.6958 71.575 8.33325 63.2458 8.33325 54.2875V45C8.33693 42.0936 8.94745 39.2201 10.1257 36.5633C11.304 33.9065 13.0241 31.525 15.1759 29.5713C17.3276 27.6176 19.8636 26.1348 22.6215 25.2178C25.3794 24.3007 28.2984 23.9697 31.1916 24.2458C41.9958 25.2583 50.0291 34.7583 50.0291 45.6083V52.5H11.6708V54.35C11.6708 61.8583 16.1249 68.8708 23.1791 71.4416ZM29.1791 27.4833C24.5383 27.4921 20.0901 29.3396 16.8086 32.6211C13.527 35.9026 11.6796 40.3508 11.6708 44.9916V49.1666H46.6957V45C46.6891 40.357 44.8421 35.9061 41.5594 32.6226C38.2767 29.3391 33.8262 27.491 29.1833 27.4833" fill="#D10033"/>
</svg>
