<svg width="38" height="38" viewBox="0 0 38 38" fill="none" xmlns="http://www.w3.org/2000/svg">
<path d="M23.75 14.25L19.7919 18.2081M23.75 14.25V9.5L28.5 4.75V9.5H33.25L28.5 14.25H23.75Z" stroke="#610218" stroke-linecap="round" stroke-linejoin="round"/>
<path d="M19.5229 4.75H19C16.1816 4.75 13.4265 5.58575 11.0831 7.15156C8.73973 8.71737 6.91327 10.9429 5.83472 13.5468C4.75617 16.1506 4.47398 19.0158 5.02382 21.78C5.57366 24.5443 6.93084 27.0834 8.92373 29.0763C10.9166 31.0692 13.4557 32.4264 16.22 32.9762C18.9842 33.526 21.8494 33.2438 24.4532 32.1653C27.0571 31.0867 29.2826 29.2603 30.8484 26.9169C32.4143 24.5735 33.25 21.8184 33.25 19V18.4779" stroke="#610218" stroke-linecap="round" stroke-linejoin="round"/>
<path d="M26.758 20.5831C26.4718 21.9844 25.8113 23.2819 24.8468 24.338C23.8822 25.394 22.6496 26.169 21.28 26.5806C19.9103 26.9923 18.4547 27.0252 17.0678 26.6759C15.6809 26.3266 14.4145 25.6081 13.4032 24.5968C12.3919 23.5855 11.6734 22.3191 11.3241 20.9322C10.9748 19.5453 11.0077 18.0897 11.4194 16.72C11.831 15.3503 12.606 14.1177 13.662 13.1532C14.718 12.1886 16.0156 11.5282 17.4169 11.2419" stroke="#610218" stroke-linecap="round" stroke-linejoin="round"/>
</svg>
