<svg width="38" height="38" viewBox="0 0 38 38" fill="none" xmlns="http://www.w3.org/2000/svg">
<path d="M32.1679 15.1406L29.5985 10.6875C29.2542 10.0927 28.7453 9.61009 28.1329 9.29797C27.5206 8.98585 26.8311 8.85751 26.1475 8.92843C25.4639 8.99935 24.8154 9.26649 24.2801 9.69766C23.7449 10.1288 23.3459 10.7056 23.1311 11.3585L20.0005 5.93752C19.6537 5.33837 19.1399 4.85325 18.5218 4.54146C17.9037 4.22967 17.2082 4.10471 16.5202 4.18187C15.8322 4.25902 15.1817 4.53495 14.648 4.97592C14.1143 5.41688 13.7207 6.00378 13.5153 6.66486C12.9513 5.96782 12.1452 5.50908 11.2579 5.38019C10.3706 5.2513 9.46727 5.46175 8.72828 5.96952C7.98928 6.4773 7.46894 7.24506 7.27109 8.11959C7.07324 8.99412 7.21243 9.9111 7.66089 10.6875L8.4491 12.0517C7.77625 11.9109 7.07706 11.9679 6.43585 12.2157C5.79465 12.4634 5.23882 12.8914 4.83539 13.448C4.43197 14.0045 4.19818 14.6659 4.16223 15.3524C4.12627 16.0389 4.28969 16.7211 4.63277 17.3167L10.5703 27.6064C11.385 29.0275 12.4736 30.2728 13.7731 31.2701C15.0726 32.2674 16.5571 32.9969 18.1406 33.4163C19.1997 33.7011 20.2916 33.8459 21.3884 33.8467C23.5753 33.8429 25.7227 33.264 27.6152 32.1681C29.5076 31.0722 31.0786 29.4978 32.1704 27.603C33.2622 25.7081 33.8364 23.5595 33.8355 21.3726C33.8345 19.1857 33.2584 17.0375 32.165 15.1436L32.1679 15.1406ZM32.2674 24.2948C31.6897 26.4496 30.486 28.3848 28.8086 29.8557C27.1312 31.3266 25.0554 32.2671 22.8435 32.5583C20.6317 32.8495 18.3831 32.4784 16.3822 31.4918C14.3812 30.5052 12.7177 28.9475 11.6019 27.0156L5.66441 16.726C5.35868 16.1811 5.27999 15.5376 5.4454 14.9351C5.61081 14.3326 6.00698 13.8195 6.54807 13.5071C7.08917 13.1946 7.73158 13.108 8.33609 13.266C8.94061 13.4239 9.45853 13.8138 9.77761 14.351L12.6306 19.2969C12.7143 19.4226 12.8428 19.5117 12.9898 19.546C13.1369 19.5803 13.2915 19.5573 13.4222 19.4816C13.5529 19.406 13.6499 19.2834 13.6934 19.1387C13.7369 18.9941 13.7236 18.8383 13.6563 18.7031L8.68957 10.0938C8.52903 9.8235 8.42374 9.52404 8.37982 9.21277C8.33589 8.9015 8.35419 8.5846 8.43367 8.28046C8.51314 7.97632 8.6522 7.69098 8.84279 7.44098C9.03337 7.19099 9.27169 6.98132 9.54392 6.82413C9.81616 6.66694 10.1169 6.56536 10.4287 6.52528C10.7405 6.48519 11.0571 6.50741 11.3602 6.59063C11.6634 6.67384 11.947 6.81642 12.1946 7.01007C12.4422 7.20373 12.649 7.44462 12.8028 7.71877L17.4296 15.7344C17.4686 15.8019 17.5205 15.8611 17.5823 15.9086C17.6442 15.9561 17.7148 15.9909 17.7901 16.0111C17.8655 16.0313 17.944 16.0365 18.0214 16.0263C18.0987 16.0161 18.1732 15.9908 18.2408 15.9519C18.3083 15.9129 18.3675 15.861 18.415 15.7991C18.4625 15.7372 18.4973 15.6666 18.5175 15.5913C18.5377 15.516 18.5429 15.4374 18.5327 15.3601C18.5225 15.2827 18.4972 15.2082 18.4582 15.1406L14.8586 8.90627C14.5437 8.36063 14.4584 7.71222 14.6215 7.1037C14.7846 6.49517 15.1828 5.97637 15.7285 5.66142C16.2741 5.34648 16.9225 5.26119 17.531 5.42432C18.1396 5.58744 18.6584 5.98563 18.9733 6.53127L24.1686 15.531C22.9809 16.5822 22.2162 18.0296 22.0174 19.6032C21.8185 21.1768 22.1991 22.7689 23.088 24.0825C23.1312 24.1484 23.187 24.205 23.2523 24.249C23.3176 24.2931 23.391 24.3237 23.4682 24.3392C23.5454 24.3546 23.6249 24.3545 23.7021 24.3389C23.7793 24.3233 23.8526 24.2925 23.9178 24.2483C23.983 24.2041 24.0387 24.1474 24.0817 24.0814C24.1248 24.0155 24.1543 23.9416 24.1685 23.8642C24.1827 23.7867 24.1814 23.7072 24.1646 23.6303C24.1478 23.5533 24.1159 23.4805 24.0707 23.416C23.3005 22.2791 22.9977 20.8894 23.2249 19.5351C23.452 18.1808 24.1919 16.966 25.2908 16.1426C25.4071 16.0556 25.4875 15.929 25.5167 15.7868C25.546 15.6446 25.5221 15.4965 25.4496 15.3707L24.4566 13.6563C24.2961 13.386 24.1908 13.0865 24.1468 12.7753C24.1029 12.464 24.1212 12.1471 24.2007 11.843C24.2802 11.5388 24.4192 11.2535 24.6098 11.0035C24.8004 10.7535 25.0387 10.5438 25.311 10.3866C25.5832 10.2294 25.8839 10.1279 26.1957 10.0878C26.5075 10.0477 26.8241 10.0699 27.1273 10.1531C27.4304 10.2363 27.714 10.3789 27.9616 10.5726C28.2093 10.7662 28.416 11.0071 28.5698 11.2813L31.1393 15.7344C31.8834 17.0155 32.3663 18.4313 32.56 19.9002C32.7536 21.369 32.6542 22.8617 32.2674 24.2918V24.2948ZM27.9241 4.85986C27.9645 4.70806 28.0634 4.57847 28.1992 4.49946C28.335 4.42044 28.4965 4.39845 28.6485 4.4383C29.707 4.71645 30.6997 5.20218 31.5689 5.86726C32.4381 6.53235 33.1665 7.36353 33.7117 8.31252L33.7607 8.39861C33.8376 8.53396 33.8584 8.69413 33.8184 8.84461C33.7784 8.99509 33.6809 9.12385 33.5469 9.20314C33.4794 9.24229 33.4048 9.26774 33.3274 9.27804C33.2501 9.28833 33.1714 9.28327 33.096 9.26314C33.0206 9.24301 32.9499 9.20821 32.8879 9.16073C32.826 9.11325 32.774 9.05402 32.735 8.98642L32.686 8.90182C32.2193 8.08941 31.5958 7.37789 30.8517 6.8086C30.1076 6.23932 29.2578 5.82363 28.3516 5.58572C28.2757 5.56636 28.2045 5.53218 28.1418 5.48516C28.0792 5.43814 28.0266 5.3792 27.9868 5.31173C27.9471 5.24427 27.9211 5.16961 27.9103 5.09206C27.8996 5.01451 27.9042 4.9356 27.9241 4.85986ZM11.5411 34.8056C11.4854 34.876 11.4146 34.9329 11.3339 34.9719C11.2532 35.011 11.1646 35.0313 11.075 35.0313C10.9419 35.031 10.8128 34.986 10.7083 34.9036C8.9923 33.5494 7.55085 31.8797 6.46152 29.9844C6.41856 29.9168 6.38971 29.8412 6.37672 29.7622C6.36372 29.6832 6.36684 29.6024 6.38589 29.5246C6.40494 29.4468 6.43953 29.3737 6.48758 29.3096C6.53562 29.2456 6.59613 29.1919 6.66546 29.1518C6.73478 29.1117 6.8115 29.0861 6.891 29.0764C6.97049 29.0668 7.05112 29.0733 7.12803 29.0956C7.20493 29.1179 7.27653 29.1556 7.33852 29.2063C7.4005 29.257 7.45159 29.3197 7.48871 29.3906C8.50318 31.1554 9.84535 32.7102 11.4431 33.9714C11.5043 34.0198 11.5554 34.0797 11.5935 34.1478C11.6315 34.2158 11.6558 34.2908 11.6649 34.3682C11.674 34.4457 11.6678 34.5242 11.6465 34.5993C11.6252 34.6743 11.5894 34.7444 11.5411 34.8056Z" fill="#610218"/>
</svg>
