<svg width="100" height="100" viewBox="0 0 100 100" fill="none" xmlns="http://www.w3.org/2000/svg">
<path d="M86.475 19.9667L74.6416 79.5917C74.4121 80.7477 73.8604 81.8153 73.0502 82.6713C72.24 83.5272 71.2042 84.1366 70.0625 84.4292L53.1083 88.7833C51.0691 89.3068 48.9308 89.3068 46.8916 88.7833L29.9333 84.4292C28.7936 84.1356 27.76 83.5262 26.9514 82.6711C26.1428 81.8161 25.592 80.7501 25.3625 79.5958L13.525 19.9667C13.3451 19.0605 13.3684 18.1258 13.5931 17.2297C13.8178 16.3337 14.2384 15.4985 14.8245 14.7845C15.4107 14.0704 16.1478 13.4952 16.9829 13.1002C17.818 12.7052 18.7303 12.5002 19.6541 12.5H80.3458C81.2696 12.5002 82.1819 12.7052 83.017 13.1002C83.8521 13.4952 84.5892 14.0704 85.1754 14.7845C85.7615 15.4985 86.1821 16.3337 86.4068 17.2297C86.6315 18.1258 86.6548 19.0605 86.475 19.9667Z" stroke="#D10033" stroke-width="3" stroke-linecap="round" stroke-linejoin="round"/>
<path d="M70.8333 28.6708H32.2166C31.8464 28.6703 31.4806 28.7521 31.1459 28.9103C30.8111 29.0684 30.5156 29.2989 30.2808 29.5852C30.0459 29.8714 29.8776 30.2063 29.788 30.5655C29.6984 30.9248 29.6896 31.2994 29.7624 31.6624L33.3416 49.5458H66.6583L62.9458 68.1208C62.8052 68.8231 62.486 69.4774 62.0189 70.0204C61.5518 70.5634 60.9526 70.9768 60.2791 71.2208L51.4208 74.4291C50.5041 74.7611 49.5 74.7611 48.5833 74.4291L39.7208 71.2208C39.0473 70.9768 38.4481 70.5634 37.981 70.0204C37.5139 69.4774 37.1947 68.8231 37.0541 68.1208L36.1208 63.4583" stroke="#D10033" stroke-width="3" stroke-linecap="round" stroke-linejoin="round"/>
</svg>
