<svg width="100" height="100" viewBox="0 0 100 100" fill="none" xmlns="http://www.w3.org/2000/svg">
<path d="M95.3334 43.375C91.0975 46.9141 85.6313 48.6295 80.1328 48.1453C74.6343 47.6611 69.5521 45.0167 66 40.7917C58.5834 31.9584 59.75 18.75 68.5417 11.4584L70.6667 9.87504C67.2192 13.6131 65.2503 18.4783 65.1276 23.5619C65.0049 28.6455 66.7369 33.6 70 37.5C76.7917 45.5834 88.5417 47.1667 97.25 41.5417L95.3334 43.375ZM87.9167 60.4167C84.7795 63.0621 81.1508 65.0618 77.2388 66.3013C73.3268 67.5407 69.2086 67.9954 65.1205 67.6392C61.0323 67.283 57.0548 66.123 53.4161 64.2258C49.7774 62.3285 46.5491 59.7314 43.9167 56.5834C32.7917 43.375 34.5417 23.6667 47.75 12.5L51.5834 9.83337C46.6336 15.4401 43.8607 22.6372 43.769 30.1156C43.6772 37.594 46.2727 44.8569 51.0834 50.5834C61.1667 62.5 78.3334 65.125 91.2917 57.1667L87.9167 60.4167ZM83.2084 80.75C64.7084 96.2917 37.0834 93.875 21.5417 75.3334C6.04169 56.8334 8.45836 29.1667 26.9584 13.7084L31.5834 10.4167C16.9584 26.25 16.0417 50.9584 30.3334 68C44.625 85 69.125 88.4167 87.3334 76.7917L83.2084 80.75Z" fill="#D10033"/>
</svg>
