<svg width="38" height="38" viewBox="0 0 38 38" fill="none" xmlns="http://www.w3.org/2000/svg">
<path d="M16.625 34.4375C16.625 35.7437 17.6938 36.8125 19 36.8125C20.3063 36.8125 21.375 35.7437 21.375 34.4375H16.625Z" fill="#610218"/>
<path d="M19 1.6875C25.3175 1.6875 30.375 6.21295 30.375 11.6377C30.375 13.0441 29.905 14.5088 29.1709 16.0205C28.6205 17.1541 27.9328 18.2912 27.209 19.4297L26.4775 20.5693L26.4746 20.5723C24.9129 23.0263 23.3338 25.4766 22.752 28H15.1885C14.6067 25.4766 13.0275 23.0263 11.4658 20.5723H11.4648C10.5109 19.0519 9.54927 17.5346 8.82227 16.0225C8.09489 14.5095 7.62504 13.0444 7.625 11.6377C7.625 6.21295 12.6825 1.6875 19 1.6875Z" fill="white" stroke="#7A001D"/>
<g filter="url(#filter0_ddd_67_68)">
<path d="M15.675 19.95C15.7344 20.3062 15.8532 20.6625 15.9125 21.0187C16.0907 21.6718 16.2094 22.2656 16.3875 22.9187C16.9219 25.1749 17.3969 27.075 17.8125 28.5593H18.1688C17.8719 27.075 17.4563 25.1156 16.9219 22.8593C16.8032 22.2656 16.625 21.6125 16.5063 20.9593C16.4469 20.6625 16.3875 20.3062 16.2688 20.0093C16.7438 19.8906 17.8719 19.5343 19 18.2875C20.1282 19.5343 21.2563 19.8906 21.7313 20.0093C21.6719 20.3656 21.6125 20.6625 21.4938 20.9593C21.375 21.6125 21.1969 22.2656 21.0782 22.8593C20.5438 25.1156 20.1282 27.075 19.8313 28.5593H20.1875C20.5438 27.075 21.0782 25.1749 21.6125 22.9187C21.7313 22.325 21.9094 21.6718 22.0875 21.0187C22.1469 20.6625 22.2657 20.3062 22.325 19.95C22.8 19.8906 23.2157 19.7718 23.5125 19.475C23.8688 19.1187 24.0469 18.7031 23.9282 18.2281C23.8688 17.9906 23.75 17.6937 23.3938 17.6343C23.2157 17.575 23.0969 17.575 22.9188 17.6343C22.7407 17.6937 22.6219 17.8125 22.5625 17.8718C22.2657 18.2281 22.1469 18.5843 22.0282 18.9406L21.85 19.475C21.85 19.475 21.375 19.5343 20.2469 18.7625C19.6532 18.3468 19.475 18.05 19.2969 17.8718C19.475 17.6343 19.6532 17.4562 19.8313 17.1593C19.8907 16.9812 19.95 16.8625 20.0094 16.625C20.0094 16.4468 20.0094 16.2093 19.8907 16.0312C19.7719 15.8531 19.6532 15.675 19.3563 15.5562C19.2375 15.4968 19.1188 15.4968 19 15.4968C18.8813 15.4968 18.7625 15.4968 18.6438 15.5562C18.4063 15.675 18.2282 15.8531 18.1094 16.0312C17.9907 16.2093 17.9907 16.4468 17.9907 16.625C17.9907 16.8031 18.05 16.9812 18.1688 17.1593C18.2875 17.4562 18.4657 17.6937 18.7032 17.8718C18.525 18.05 18.3469 18.3468 17.7532 18.7625C16.6844 19.475 16.15 19.475 16.15 19.475L15.9719 18.9406C15.8532 18.5843 15.7344 18.2281 15.4375 17.8718C15.3782 17.8125 15.2594 17.6937 15.0813 17.6343C14.9032 17.575 14.725 17.575 14.6063 17.6343C14.25 17.7531 14.1313 18.05 14.0719 18.2281C14.0125 18.7031 14.1907 19.1187 14.4875 19.475C14.8438 19.7718 15.2594 19.8906 15.675 19.95ZM22.5625 19.0593C22.6813 18.7624 22.8 18.4062 23.0375 18.2281C23.0969 18.1687 23.1563 18.1687 23.1563 18.1687H23.275C23.3344 18.1687 23.3938 18.2281 23.4532 18.4062C23.5125 18.6437 23.3938 19 23.1563 19.1781C22.9782 19.2968 22.7407 19.4156 22.5032 19.475C22.5032 19.2968 22.5032 19.1781 22.5625 19.0593ZM18.6438 16.2093C18.7625 16.0906 18.8813 15.9718 19 15.9718C19.1188 15.9718 19.2375 16.0312 19.3563 16.2093C19.475 16.3875 19.4157 16.625 19.2969 16.8625C19.2375 17.0406 19.1188 17.2187 19 17.3375C18.8813 17.1593 18.7625 17.0406 18.7032 16.8625C18.5844 16.6843 18.525 16.4468 18.6438 16.2093ZM14.6063 18.2875C14.6063 18.1687 14.6657 18.1093 14.7844 18.05H14.9032C14.9032 18.05 14.9625 18.1093 15.0219 18.1093C15.2 18.2875 15.3782 18.6437 15.4969 18.9406C15.5563 19.0593 15.5563 19.1781 15.6157 19.2968C15.3782 19.2375 15.1407 19.1781 14.9625 19C14.725 18.8812 14.6063 18.5843 14.6063 18.2875Z" fill="white"/>
</g>
<path d="M14.7844 29.6875H23.2751V30.7562H14.7844V29.6875ZM15.3782 31.825H22.6813V32.8938H15.3782V31.825Z" fill="#610218"/>
<path d="M15.3782 30.7562H22.6813V31.825H15.3782V30.7562Z" fill="#610218"/>
<path d="M23.275 29.6875L15.3782 31.825V32.9531L23.275 30.7562V29.6875ZM15.9719 34.0219L19 33.5L22.0875 34.0219V35.0906H15.9719V34.0219Z" fill="#7A001D"/>
<path d="M16 32.5H19L22 32V34H16V32.5Z" fill="#610218"/>
<path d="M22.6813 31.825L15.9719 34.0218V35.15L22.6813 32.9531V31.825Z" fill="#7A001D"/>
<defs>
<filter id="filter0_ddd_67_68" x="10.0605" y="6.49683" width="17.9043" height="25.0625" filterUnits="userSpaceOnUse" color-interpolation-filters="sRGB">
<feFlood flood-opacity="0" result="BackgroundImageFix"/>
<feColorMatrix in="SourceAlpha" type="matrix" values="0 0 0 0 0 0 0 0 0 0 0 0 0 0 0 0 0 0 127 0" result="hardAlpha"/>
<feOffset/>
<feGaussianBlur stdDeviation="1.5"/>
<feComposite in2="hardAlpha" operator="out"/>
<feColorMatrix type="matrix" values="0 0 0 0 0.380392 0 0 0 0 0.00784314 0 0 0 0 0.0941176 0 0 0 1 0"/>
<feBlend mode="normal" in2="BackgroundImageFix" result="effect1_dropShadow_67_68"/>
<feColorMatrix in="SourceAlpha" type="matrix" values="0 0 0 0 0 0 0 0 0 0 0 0 0 0 0 0 0 0 127 0" result="hardAlpha"/>
<feOffset dy="-2"/>
<feGaussianBlur stdDeviation="2"/>
<feComposite in2="hardAlpha" operator="out"/>
<feColorMatrix type="matrix" values="0 0 0 0 0.380392 0 0 0 0 0.00784314 0 0 0 0 0.0941176 0 0 0 1 0"/>
<feBlend mode="normal" in2="effect1_dropShadow_67_68" result="effect2_dropShadow_67_68"/>
<feColorMatrix in="SourceAlpha" type="matrix" values="0 0 0 0 0 0 0 0 0 0 0 0 0 0 0 0 0 0 127 0" result="hardAlpha"/>
<feOffset dy="-5"/>
<feGaussianBlur stdDeviation="2"/>
<feComposite in2="hardAlpha" operator="out"/>
<feColorMatrix type="matrix" values="0 0 0 0 0.478431 0 0 0 0 0 0 0 0 0 0.113725 0 0 0 1 0"/>
<feBlend mode="normal" in2="effect2_dropShadow_67_68" result="effect3_dropShadow_67_68"/>
<feBlend mode="normal" in="SourceGraphic" in2="effect3_dropShadow_67_68" result="shape"/>
</filter>
</defs>
</svg>
