<svg width="38" height="38" viewBox="0 0 38 38" fill="none" xmlns="http://www.w3.org/2000/svg">
<path d="M19 1.1875C12.4527 1.1875 7.125 5.87159 7.125 11.6292C7.125 14.6751 9.12475 17.8113 11.0562 20.8418C12.7205 23.4502 14.31 25.9398 14.8063 28.5H23.1931C23.6906 25.9392 25.2783 23.4496 26.942 20.8418C28.8747 17.8113 30.875 14.6751 30.875 11.6292C30.875 5.87159 25.5473 1.1875 19 1.1875ZM19 17.6189C20.1471 18.8569 21.2278 19.225 21.7218 19.3343C21.6475 19.6638 21.5804 19.9856 21.5027 20.3027C21.3566 20.9511 21.2141 21.5828 21.0757 22.1896C20.6903 23.8951 20.3152 25.603 19.9506 27.3131H18.0488C17.6833 25.6032 17.3083 23.8953 16.9237 22.1896L16.4956 20.3027C16.4178 19.9856 16.3507 19.6638 16.2777 19.3343C16.7723 19.225 17.8529 18.8569 19 17.6189ZM18.68 16.3228C18.5666 16.0776 18.5256 15.827 18.642 15.6423C18.7393 15.4957 18.8682 15.412 19.0006 15.412C19.133 15.412 19.2607 15.4957 19.3592 15.6423C19.475 15.827 19.4346 16.077 19.3212 16.3228C19.2375 16.4962 19.1229 16.6612 19 16.8209C18.876 16.6667 18.7687 16.4997 18.68 16.3228ZM25.9415 20.2023C24.4079 22.6064 22.9496 24.8918 22.2585 27.3125H20.3312C20.7585 25.6394 21.1767 23.964 21.5858 22.2864C21.7318 21.6802 21.8862 21.0526 22.0436 20.4054C22.1314 20.061 22.2092 19.706 22.2953 19.3527C22.7442 19.3224 23.1735 19.1823 23.5083 18.8753C23.8515 18.5375 24.0303 18.0957 23.9501 17.6243C23.9139 17.3987 23.7447 17.1065 23.4181 17.0068C23.2584 16.953 23.0861 16.9491 22.9241 16.9955C22.7895 17.046 22.6681 17.1264 22.569 17.2306C22.2526 17.5821 22.1374 17.933 22.0079 18.281C21.9474 18.4561 21.8975 18.6313 21.85 18.8041C21.85 18.8041 21.3453 18.8427 20.2659 18.1165C19.6662 17.7133 19.4934 17.4218 19.3194 17.2288C19.5071 17.0204 19.687 16.7918 19.8265 16.5146C19.9007 16.3596 19.9631 16.1916 19.9844 16.0027C20.0058 15.8139 19.9708 15.6002 19.8627 15.4161C19.7473 15.2121 19.5663 15.0531 19.3491 14.9649C19.2411 14.9263 19.1205 14.9079 19 14.9079C18.8795 14.9079 18.7578 14.9257 18.6509 14.9649C18.4335 15.0532 18.2522 15.2122 18.1361 15.4161C18.028 15.6008 17.9936 15.8139 18.0144 16.0027C18.0383 16.1811 18.0921 16.3541 18.1735 16.5146C18.3124 16.7918 18.4923 17.021 18.6806 17.2288C18.5066 17.4218 18.3326 17.7133 17.7329 18.1165C16.6535 18.8432 16.1488 18.8041 16.1488 18.8041C16.1023 18.628 16.05 18.4536 15.9921 18.281C15.8608 17.933 15.7474 17.5821 15.431 17.2306C15.3319 17.1264 15.2105 17.046 15.0759 16.9955C14.9139 16.9491 14.7416 16.953 14.5819 17.0068C14.2536 17.1065 14.0855 17.3987 14.0499 17.6243C13.9686 18.0957 14.1485 18.5375 14.4917 18.8753C14.8277 19.1823 15.2558 19.3224 15.7047 19.3527C15.7896 19.7066 15.8668 20.061 15.9564 20.4054L16.4142 22.2864C16.8237 23.9639 17.2419 25.6393 17.6688 27.3125H15.7415C15.0516 24.8942 13.5927 22.6088 12.0549 20.2C10.2149 17.3126 8.3125 14.3272 8.3125 11.6292C8.3125 6.5265 13.1064 2.375 19 2.375C24.8936 2.375 29.6875 6.5265 29.6875 11.6292C29.6875 14.3284 27.7833 17.3143 25.9415 20.2023ZM22.4432 18.8005C22.4782 18.6788 22.5138 18.5553 22.5554 18.4365C22.6676 18.1236 22.8107 17.7834 23.0054 17.5798C23.0517 17.5275 23.0992 17.5067 23.1236 17.4931C23.1236 17.4954 23.1818 17.4859 23.2186 17.5043C23.2845 17.521 23.3474 17.5892 23.3718 17.7205C23.4193 17.9746 23.2988 18.3017 23.0808 18.5066C22.9277 18.6521 22.6913 18.7542 22.4432 18.8005ZM15.5557 18.8005C15.3075 18.7542 15.0712 18.6521 14.9192 18.506C14.7001 18.3012 14.5807 17.974 14.6282 17.7199C14.6526 17.5881 14.7149 17.5204 14.7814 17.5037C14.8188 17.4859 14.8764 17.4948 14.8764 17.4925C14.8996 17.5061 14.9482 17.5275 14.9922 17.5792C15.1881 17.7834 15.3306 18.123 15.4434 18.4359C15.485 18.5553 15.5212 18.6788 15.5557 18.8005ZM15.7463 29.4245H15.1525V31.562H15.6085V33.4626H16.0645V35.3632H16.8281C17.1873 36.2116 18.0185 36.8125 19 36.8125C19.9809 36.8125 20.8115 36.2116 21.1719 35.362H21.9598V33.4495L22.0263 33.4252L22.4152 33.2827V31.5471L22.4538 31.5347L22.8701 31.404V29.4239L15.7463 29.4245Z" fill="#610218"/>
</svg>
