<svg width="100" height="100" viewBox="0 0 100 100" fill="none" xmlns="http://www.w3.org/2000/svg">
<path d="M21.765 21.6701C22.2179 21.2306 22.8268 20.9889 23.4579 20.9983C24.0889 21.0077 24.6904 21.2673 25.13 21.7201C25.6083 22.2226 25.8704 22.8927 25.8602 23.5863C25.8499 24.28 25.568 24.942 25.075 25.4301C18.6103 31.9725 14.9895 40.8025 15 50.0001C15 59.9501 19.15 68.9301 25.82 75.3001C26.0764 75.5388 26.2829 75.826 26.4275 76.145C26.5722 76.464 26.6522 76.8085 26.6629 77.1586C26.6736 77.5087 26.6148 77.8575 26.4898 78.1847C26.3649 78.512 26.1763 78.8112 25.935 79.0651C25.5049 79.5094 24.9184 79.7684 24.3003 79.7871C23.6822 79.8058 23.0812 79.5826 22.625 79.1651C18.6349 75.428 15.4553 70.9108 13.2835 65.8938C11.1117 60.8768 9.99412 55.467 10 50.0001C10 38.9301 14.5 28.9101 21.765 21.6701ZM74.925 25.4301C74.4327 24.9413 74.1518 24.279 74.1424 23.5853C74.1331 22.8916 74.3961 22.222 74.875 21.7201C75.3145 21.2688 75.9149 21.0102 76.5447 21.0008C77.1745 20.9914 77.7823 21.2321 78.235 21.6701C81.9682 25.3825 84.9297 29.7971 86.9489 34.6593C88.9681 39.5215 90.005 44.7353 90 50.0001C90 61.5001 85.15 71.8701 77.375 79.1651C76.9189 79.5826 76.3178 79.8058 75.6997 79.7871C75.0816 79.7684 74.4951 79.5094 74.065 79.0651C73.8245 78.8113 73.6365 78.5124 73.512 78.1856C73.3875 77.8588 73.329 77.5107 73.3396 77.1611C73.3503 76.8116 73.4301 76.4677 73.5743 76.1491C73.7186 75.8306 73.9244 75.5437 74.18 75.3051C77.6046 72.0408 80.3296 68.1143 82.1897 63.7642C84.0497 59.4141 85.0059 54.7312 85 50.0001C85.0118 40.8007 81.391 31.9738 74.925 25.4301ZM30.66 30.4501C31.1056 30.0257 31.7015 29.7958 32.3166 29.8108C32.9317 29.8258 33.5157 30.0845 33.94 30.5301C34.98 31.5701 34.875 33.2801 33.85 34.3301C29.7767 38.5293 27.499 44.1499 27.5 50.0001C27.5 56.4501 30.215 62.2701 34.57 66.3751C35.67 67.4101 35.82 69.1801 34.745 70.2551C34.333 70.6835 33.7719 70.937 33.178 70.9631C32.5842 70.9891 32.003 70.7858 31.555 70.3951C28.7043 67.8171 26.4255 64.6702 24.8659 61.1573C23.3062 57.6444 22.5003 53.8436 22.5 50.0001C22.4945 46.3629 23.2132 42.7611 24.6142 39.4046C26.0152 36.0481 28.0704 33.0041 30.66 30.4501ZM66.15 34.3301C65.125 33.2801 65.02 31.5701 66.06 30.5301C66.4844 30.0845 67.0683 29.8258 67.6835 29.8108C68.2986 29.7958 68.8945 30.0257 69.34 30.4501C71.9296 33.0041 73.9849 36.0481 75.3859 39.4046C76.7868 42.7611 77.5055 46.3629 77.5 50.0001C77.5011 53.8441 76.6963 57.6456 75.1375 61.1594C73.5787 64.6732 71.3005 67.8211 68.45 70.4001C68.0002 70.7925 67.4162 70.9959 66.8199 70.968C66.2236 70.94 65.6612 70.6828 65.25 70.2501C64.18 69.1801 64.33 67.4101 65.43 66.3751C67.6624 64.2717 69.4411 61.734 70.6569 58.9181C71.8727 56.1021 72.4999 53.0673 72.5 50.0001C72.501 44.1499 70.2234 38.5293 66.15 34.3301ZM50 43.7501C48.3424 43.7501 46.7527 44.4086 45.5806 45.5807C44.4085 46.7528 43.75 48.3425 43.75 50.0001C43.75 51.6577 44.4085 53.2474 45.5806 54.4195C46.7527 55.5916 48.3424 56.2501 50 56.2501C51.6576 56.2501 53.2473 55.5916 54.4194 54.4195C55.5915 53.2474 56.25 51.6577 56.25 50.0001C56.25 48.3425 55.5915 46.7528 54.4194 45.5807C53.2473 44.4086 51.6576 43.7501 50 43.7501Z" fill="#D10033"/>
</svg>
