<svg width="100" height="100" viewBox="0 0 100 100" fill="none" xmlns="http://www.w3.org/2000/svg">
<g clip-path="url(#clip0_70_63)">
<path d="M67.2438 19.2687C67.1478 19.2677 67.0532 19.2919 66.9696 19.339C66.8824 19.3902 66.8098 19.4627 66.7585 19.5498C66.7072 19.6369 66.6791 19.7357 66.6766 19.8367V34.6257C66.6751 34.6986 66.6555 34.7698 66.6195 34.8331C66.5834 34.8964 66.5322 34.9498 66.4704 34.9882C66.4079 35.0217 66.3381 35.0393 66.2672 35.0393C66.1963 35.0393 66.1266 35.0217 66.0641 34.9882L63.6688 33.6031C63.493 33.5026 63.294 33.4498 63.0915 33.4498C62.8889 33.4498 62.6899 33.5026 62.5141 33.6031L52.9297 39.1765C52.7521 39.2765 52.6041 39.4216 52.5006 39.5973C52.3972 39.7729 52.342 39.9727 52.3407 40.1765V51.3C52.3407 51.7093 52.568 52.0976 52.9297 52.3023L62.5157 57.8765C62.6913 57.9767 62.89 58.0293 63.0922 58.0293C63.2944 58.0293 63.4931 57.9767 63.6688 57.8765L73.2547 52.3023C73.6164 52.0976 73.8438 51.7093 73.8438 51.3V23.5687C73.8438 23.1367 73.6164 22.7484 73.2547 22.5453L67.536 19.339C67.4453 19.2933 67.3453 19.2692 67.2438 19.2687ZM10.6922 33.1484C10.5125 33.1484 10.3321 33.2156 10.1743 33.3046L0.588326 38.8586C0.408165 38.9611 0.25865 39.1098 0.155229 39.2895C0.051809 39.4691 -0.00176477 39.6731 4.43462e-05 39.8804L0.0234818 54.8031C0.0234818 55.0086 0.134419 55.214 0.315669 55.3054C0.399777 55.3607 0.498225 55.3902 0.598872 55.3902C0.69952 55.3902 0.797968 55.3607 0.882076 55.3054L6.58129 52.0296C6.75855 51.9291 6.9061 51.7836 7.009 51.6077C7.1119 51.4318 7.16648 51.2319 7.16723 51.0281V44.0445C7.16723 43.6351 7.3938 43.2468 7.7563 43.0421L10.1743 41.632C10.3512 41.5246 10.5549 41.4696 10.7618 41.4734C10.9649 41.4734 11.1696 41.5179 11.3282 41.632L13.7469 43.0421C14.1086 43.2468 14.336 43.6351 14.336 44.0445V51.0289C14.336 51.4367 14.561 51.8257 14.9219 52.0289L20.575 55.3054C20.6628 55.3613 20.7647 55.391 20.8688 55.391C20.9729 55.391 21.0748 55.3613 21.1625 55.3054C21.2528 55.2565 21.328 55.1839 21.3799 55.0953C21.4318 55.0068 21.4585 54.9057 21.4571 54.8031V39.8804C21.4571 39.4711 21.2305 39.0836 20.868 38.8781L11.3047 33.3046C11.1436 33.2192 10.9674 33.1658 10.786 33.1476L10.6922 33.1484ZM89.3407 33.3101V33.3117L89.3391 33.3132C89.1414 33.3132 88.9446 33.364 88.7633 33.4671L79.1766 39.0375C78.8149 39.2437 78.5907 39.6304 78.5907 40.0406V51.1656C78.5907 51.575 78.8149 51.9625 79.1766 52.1664L88.6946 57.6265C88.8661 57.7272 89.0613 57.7803 89.2602 57.7803C89.4591 57.7803 89.6543 57.7272 89.8258 57.6265L95.5914 54.3976C95.6814 54.3485 95.7563 54.2758 95.8079 54.1872C95.8595 54.0987 95.886 53.9977 95.8844 53.8953C95.8856 53.7932 95.8589 53.6927 95.8073 53.6046C95.7557 53.5166 95.6811 53.4442 95.5914 53.3953L85.961 47.8203C85.8729 47.7686 85.7997 47.695 85.7484 47.6067C85.6971 47.5185 85.6694 47.4185 85.668 47.3164V43.8359C85.6672 43.7341 85.694 43.6339 85.7456 43.5462C85.7972 43.4584 85.8716 43.3862 85.961 43.3375L88.9719 41.6086C89.0597 41.5527 89.1616 41.523 89.2657 41.523C89.3697 41.523 89.4716 41.5527 89.5594 41.6086L92.5633 43.3375C92.6509 43.3885 92.7239 43.4611 92.7755 43.5483C92.827 43.6356 92.8554 43.7346 92.8579 43.8359V46.5656C92.8579 46.7711 92.9704 46.9757 93.1508 47.0664C93.2388 47.1226 93.341 47.1525 93.4454 47.1525C93.5497 47.1525 93.6519 47.1226 93.7399 47.0664L99.436 43.7226C99.6107 43.6212 99.7554 43.4751 99.8552 43.2994C99.955 43.1237 100.006 42.9247 100.004 42.7226V40.0156C100.004 39.6062 99.7758 39.2195 99.436 39.014L89.9196 33.4664C89.7437 33.3648 89.5445 33.3107 89.3414 33.3093L89.3407 33.3101ZM36.9633 33.3484C36.7764 33.3497 36.593 33.399 36.4305 33.4914L26.9227 39.0125L30.2493 45.114L37.0758 33.3593C37.0387 33.3546 37.0015 33.3512 36.9641 33.3492H36.9625L36.9633 33.3484ZM37.4055 33.464L44.1297 45.0375L47.2899 39.2211C47.2315 39.1608 47.1659 39.1081 47.0946 39.064L42.1954 36.2179L37.479 33.4929C37.455 33.4825 37.4305 33.4729 37.4055 33.464ZM37.2102 33.5109L30.3555 45.3109L37.154 57.7836L37.2102 57.7726L44.0219 45.2359L37.2094 33.5117L37.2102 33.5109ZM26.7594 39.114C26.6186 39.2125 26.504 39.344 26.4256 39.4969C26.3472 39.6498 26.3073 39.8195 26.3094 39.9914V51.164C26.3094 51.3421 26.3579 51.5156 26.4407 51.6695L30.1344 45.3078L26.7594 39.114ZM47.4235 39.3812L44.243 45.2328L47.6165 51.0406V39.9914C47.6165 39.7726 47.5446 39.5593 47.4227 39.382L47.4235 39.3812ZM63.0922 41.6195C63.1438 41.6195 63.1933 41.6312 63.2407 41.6546L66.5164 43.5671C66.6071 43.6125 66.6532 43.7242 66.6532 43.8156V47.6382C66.6532 47.7523 66.6063 47.8445 66.5164 47.8898L63.2383 49.8C63.1925 49.8223 63.1421 49.834 63.0911 49.834C63.04 49.834 62.9897 49.8223 62.9438 49.8L59.6664 47.8914C59.5758 47.8461 59.5289 47.7312 59.5289 47.6398V43.8171C59.5289 43.7031 59.5766 43.6132 59.6664 43.5671L62.9438 41.6546C62.9896 41.6308 63.0406 41.6188 63.0922 41.6195ZM89.3071 43.1664C89.2666 43.1668 89.2271 43.1793 89.1938 43.2023L87.361 44.2718C87.3265 44.2932 87.2981 44.3231 87.2787 44.3587C87.2592 44.3944 87.2494 44.4344 87.25 44.475V46.6156C87.25 46.7062 87.293 46.775 87.361 46.8203L89.1938 47.8898C89.2272 47.9121 89.2665 47.9241 89.3067 47.9241C89.3469 47.9241 89.3862 47.9121 89.4196 47.8898L91.2508 46.8195C91.2852 46.7977 91.3135 46.7676 91.3332 46.7319C91.3529 46.6963 91.3632 46.6563 91.3633 46.6156V44.4765C91.3638 44.4358 91.3537 44.3957 91.334 44.36C91.3143 44.3244 91.2856 44.2946 91.2508 44.2734L89.4196 43.2023C89.3862 43.1803 89.3471 43.1686 89.3071 43.1687V43.1664ZM44.136 45.432L37.486 57.6703L37.4969 57.6648L47.0961 52.089C47.3641 51.9375 47.536 51.6781 47.5938 51.3836L44.136 45.432ZM30.243 45.5062L26.5594 51.8476C26.6375 51.9437 26.729 52.0273 26.8329 52.0898L36.3282 57.607L36.4297 57.6656H36.4321C36.5061 57.7074 36.5848 57.7404 36.6664 57.764C36.6909 57.7708 36.7149 57.7765 36.7383 57.7812C36.7847 57.7916 36.831 57.7987 36.8774 57.8023C36.8998 57.8039 36.9222 57.8044 36.9446 57.8039L30.243 45.5062ZM49.3915 55.9695C49.0579 55.9695 48.725 56.0476 48.4422 56.207L39.4188 61.4648C39.1293 61.6345 38.8893 61.877 38.7226 62.1683C38.5559 62.4596 38.4684 62.7894 38.4688 63.125V73.6093C38.4688 74.2921 38.8305 74.9289 39.418 75.2711L41.7938 76.6351C42.9461 77.2039 43.3524 77.2007 43.8719 77.2007C45.5672 77.2007 46.5407 76.1554 46.5407 74.3586V64.0125C46.5399 63.9407 46.5114 63.872 46.4612 63.8208C46.411 63.7695 46.3429 63.7397 46.2711 63.7375H45.1188C45.0461 63.7383 44.9766 63.7675 44.9252 63.8189C44.8738 63.8703 44.8446 63.9398 44.8438 64.0125V74.3625C44.8438 75.1586 44.011 75.9554 42.6774 75.2734L40.2118 73.8406C40.1211 73.7953 40.0758 73.6789 40.0758 73.5882V63.1C40.0758 63.0093 40.1211 62.8945 40.2118 62.85L49.2313 57.6187C49.2993 57.5734 49.4125 57.5734 49.5047 57.6187L58.5235 62.8492C58.6133 62.8961 58.661 62.9867 58.661 63.0992V73.5867C58.661 73.7 58.6141 73.7937 58.5235 73.839L49.5024 79.0937C49.4344 79.139 49.3211 79.139 49.229 79.0937L46.925 77.7054C46.8563 77.6601 46.7657 77.6382 46.6985 77.682C46.0657 78.0476 45.954 78.0945 45.343 78.2992C45.2071 78.3445 44.9813 78.4336 45.4329 78.6836L48.4422 80.4828C48.736 80.6414 49.0516 80.7312 49.3915 80.7312C49.7305 80.7312 50.068 80.6414 50.3391 80.5281L59.3594 75.2734C59.6494 75.1033 59.8896 74.8601 60.0561 74.5681C60.2227 74.2761 60.3098 73.9455 60.3086 73.6093V63.125C60.3086 62.4421 59.9469 61.8078 59.3594 61.4664L50.3391 56.2086C50.0485 56.0501 49.7224 55.9673 49.3915 55.9695ZM63.475 60.7578C63.0119 60.7596 62.5684 60.9454 62.2421 61.2741C61.9159 61.6029 61.7335 62.0477 61.7352 62.5109C61.734 62.9738 61.9165 63.4183 62.2427 63.7467C62.5689 64.0751 63.0121 64.2606 63.475 64.2625C64.4258 64.2625 65.2172 63.4656 65.2172 62.5109C65.215 62.0486 65.0311 61.6057 64.7051 61.2778C64.3791 60.95 63.9373 60.7635 63.475 60.7586V60.7578ZM63.4516 61.0515H63.4539C63.6468 61.0491 63.8382 61.0852 64.017 61.1575C64.1958 61.2299 64.3584 61.3371 64.4953 61.4729C64.6323 61.6088 64.7408 61.7705 64.8145 61.9487C64.8883 62.1269 64.9259 62.318 64.925 62.5109C64.925 63.3078 64.268 63.9875 63.4539 63.9875C62.6633 63.9875 62.0055 63.3296 62.0055 62.5109C62.0055 61.6921 62.6844 61.0531 63.4516 61.0515ZM62.8188 61.5312V63.5312H63.2047V62.7398H63.5469C63.6829 62.7398 63.7266 62.7851 63.75 62.8984C63.75 62.9218 63.8172 63.4211 63.8172 63.5117H64.2235C64.1766 63.4211 64.1555 63.1461 64.1329 62.9867C64.111 62.7367 64.0891 62.5562 63.8172 62.5336C63.9532 62.4875 64.1766 62.4203 64.1766 62.0562C64.1766 61.5328 63.7235 61.5328 63.4977 61.5328L62.8188 61.5312ZM63.161 61.85H63.475C63.5891 61.85 63.7711 61.85 63.7711 62.1234C63.7711 62.214 63.725 62.3968 63.475 62.3968H63.161V61.85ZM51.8571 63.4203C49.2789 63.4203 47.7383 64.5132 47.7383 66.3562C47.7383 68.3359 49.2766 68.8781 51.7414 69.1281C54.7024 69.425 54.9289 69.8586 54.9289 70.45C54.9289 71.4734 54.1149 71.9039 52.2157 71.9039C49.8188 71.9039 49.2977 71.3125 49.1165 70.1078C49.1165 69.9703 49.0071 69.8812 48.8711 69.8812H47.6954C47.6228 69.8812 47.5533 69.91 47.502 69.9613C47.4507 70.0126 47.4219 70.0821 47.4219 70.1546C47.4219 71.7015 48.2375 73.5195 52.1954 73.5195C55.043 73.5195 56.6914 72.382 56.6914 70.3789C56.6914 68.4234 55.379 67.8992 52.5993 67.5351C49.7946 67.1711 49.5016 66.9664 49.5016 66.307C49.5016 65.7609 49.7516 65.0343 51.8297 65.0343C53.6852 65.0343 54.386 65.4437 54.6579 66.6945C54.6708 66.7511 54.7019 66.802 54.7465 66.8392C54.7911 66.8765 54.8467 66.8981 54.9047 66.9007H56.1032C56.1711 66.9007 56.2414 66.8562 56.2875 66.8109C56.329 66.7499 56.3523 66.6784 56.3547 66.6046C56.1743 64.4211 54.7516 63.4203 51.8571 63.4203Z" fill="#D10033"/>
</g>
<defs>
<clipPath id="clip0_70_63">
<rect width="100" height="100" fill="white"/>
</clipPath>
</defs>
</svg>
