<svg width="100" height="100" viewBox="0 0 100 100" fill="none" xmlns="http://www.w3.org/2000/svg">
<path d="M86.2422 63.3321L67.7969 55.0782C67.0819 54.7688 66.3009 54.6424 65.5248 54.7106C64.7486 54.7788 64.0017 55.0394 63.3516 55.4688C63.2996 55.5018 63.2501 55.5384 63.2032 55.5782L53.5157 63.836C53.3001 63.9675 53.0554 64.0438 52.8033 64.0581C52.5512 64.0724 52.2994 64.0243 52.0704 63.9181C45.7266 60.8556 39.1602 54.3399 36.0977 48.0704C35.9894 47.843 35.9391 47.5924 35.9514 47.3408C35.9636 47.0893 36.0381 46.8447 36.168 46.629L44.4493 36.7813C44.4883 36.7345 44.5235 36.6837 44.5586 36.6329C44.9867 35.9837 45.2466 35.2382 45.3148 34.4635C45.383 33.6889 45.2573 32.9094 44.9493 32.1954L36.6797 13.7813C36.2805 12.8487 35.5895 12.0708 34.7104 11.5643C33.8314 11.0579 32.8118 10.8503 31.8047 10.9727C26.889 11.6209 22.3773 14.0363 19.1123 17.7678C15.8473 21.4993 14.0523 26.2918 14.0625 31.2501C14.0625 61.4063 38.5938 85.9376 68.75 85.9376C73.7083 85.9479 78.5008 84.1529 82.2323 80.8879C85.9638 77.6229 88.3793 73.1111 89.0274 68.1954C89.1489 67.1929 88.9435 66.178 88.4416 65.3017C87.9398 64.4254 87.1684 63.7346 86.2422 63.3321ZM85.9375 67.8048C85.3859 71.9678 83.3369 75.7875 80.1737 78.5496C77.0104 81.3117 72.9495 82.8271 68.75 82.8126C40.3204 82.8126 17.1875 59.6798 17.1875 31.2501C17.173 27.0507 18.6884 22.9897 21.4505 19.8264C24.2126 16.6632 28.0323 14.6142 32.1954 14.0626C32.2578 14.0588 32.3204 14.0588 32.3829 14.0626C32.6911 14.0652 32.9917 14.159 33.2468 14.332C33.5019 14.5051 33.7001 14.7498 33.8164 15.0352L42.0625 33.4493C42.1588 33.6744 42.2008 33.9189 42.1851 34.1631C42.1695 34.4074 42.0968 34.6446 41.9727 34.8556L33.6954 44.6993C33.6563 44.7501 33.6172 44.797 33.5821 44.8517C33.1411 45.526 32.8814 46.3027 32.828 47.1066C32.7746 47.9106 32.9294 48.7148 33.2774 49.4415C36.6719 56.3907 43.6719 63.3399 50.6993 66.7345C51.431 67.0802 52.2397 67.2306 53.0468 67.171C53.8538 67.1115 54.6317 66.844 55.3047 66.3946L55.4493 66.2852L65.1485 58.0352C65.356 57.9085 65.5906 57.8328 65.833 57.8145C66.0755 57.7962 66.3188 57.8357 66.543 57.9298L84.9844 66.1954C85.2956 66.3249 85.5566 66.5517 85.7284 66.8417C85.9002 67.1318 85.9735 67.4696 85.9375 67.8048Z" fill="#D10033"/>
</svg>
