<svg width="100" height="100" viewBox="0 0 100 100" fill="none" xmlns="http://www.w3.org/2000/svg">
<g clip-path="url(#clip0_69_47)">
<path d="M98.1666 61.3459C98.1101 61.1694 98.0302 61.0012 97.9291 60.8459C97.3458 59.7487 95.9472 59.4278 93.7333 59.8834C86.8416 61.3001 84.175 60.4251 83.2083 59.8001C88.8 51.2667 93.3958 40.9584 95.8791 31.3417C97.0125 26.9667 99.2041 16.6626 96.3875 11.6334C96.2082 11.288 95.9991 10.959 95.7625 10.6501C90.3875 3.79172 82.5 0.104216 72.9583 0.00421621C66.7291 -0.0624505 61.4166 1.44588 59.975 2.00005C59.2614 1.86745 58.5445 1.75353 57.825 1.65838C56.0204 1.33192 54.192 1.15493 52.3583 1.12922C47.4333 1.05005 43.1791 2.22922 39.65 4.62922C36.0833 3.29172 19.7041 -2.22495 9.56662 4.95838C3.89579 8.97088 1.28746 16.1375 1.79162 26.2667C1.96246 29.6751 3.90412 40.1584 6.97079 50.2001C8.88746 56.4778 10.8777 61.4528 12.9416 65.1251C15.2472 69.2723 17.6277 71.7584 20.0833 72.5834C21.95 73.2001 24.8041 73.1792 27.825 69.5459C30.4454 66.4116 33.1477 63.3466 35.9291 60.3542C37.7416 61.3334 39.7041 61.8626 41.7208 61.9251V61.9417C41.3702 62.3592 41.0271 62.7829 40.6916 63.2126C39.2791 65.0042 38.9833 65.3792 34.4416 66.3167C33.15 66.5834 29.7166 67.2876 29.6666 69.6959C29.6592 70.1771 29.7909 70.6502 30.0458 71.0584C30.9916 72.8209 33.8875 73.6001 34.275 73.6959C39.8375 75.0834 44.7125 74.0792 48.325 70.8667C48.2541 80.1626 48.6458 89.2751 49.7625 92.0667C50.6833 94.3709 52.9375 100 60.0541 100C61.0958 100.003 62.2472 99.8723 63.5083 99.6084C70.9333 98.0167 74.1583 94.7334 75.4041 87.5001C76.0291 83.8751 77.0791 75.5209 77.65 70.4126C77.7208 70.1209 77.8 69.9126 77.8875 69.8459C77.8875 69.8459 78.1791 69.6459 79.6666 69.9709L79.85 70.0001L80.9083 70.0917L80.9708 70.0959C84.5 70.2584 88.9333 69.5042 91.5166 68.3042C94.2 67.0542 99.0458 64.0001 98.1666 61.3459ZM9.87496 49.4834C6.77496 39.3376 4.96662 29.1292 4.82496 26.2709C4.37079 17.2209 6.56246 10.9251 11.3333 7.55005C18.9875 2.13755 31.5 5.30005 36.7833 7.00838L36.7416 7.05005C28.3125 15.5584 28.5125 30.1084 28.5416 31.0001C28.5416 31.3417 28.5666 31.8292 28.6083 32.5001C28.75 34.9417 29.025 39.5001 28.3 44.6584C27.6333 49.4501 29.1083 54.1417 32.3541 57.5292C32.6875 57.8792 33.0375 58.2084 33.4041 58.5167C31.9583 60.0626 28.8208 63.4876 25.475 67.5084C23.1083 70.3501 21.475 69.8042 20.9416 69.6251C19.3083 69.0834 17.5541 67.1792 15.7791 64.1167C13.7791 60.6209 11.7666 55.6501 9.88329 49.4834M34.9125 70.6834C34.2794 70.5256 33.6729 70.2757 33.1125 69.9417C33.4833 69.7792 34.1 69.5667 35.125 69.3584C40.475 68.2542 41.3 67.4792 43.1041 65.1917C43.5916 64.5583 44.1016 63.9426 44.6333 63.3459C44.7692 63.1863 44.8738 63.0026 44.9416 62.8042C45.65 62.1751 46.075 62.3459 46.7583 62.6292C47.4083 62.9001 48.0416 63.7126 48.3 64.6084C48.425 65.0334 48.5583 65.8376 48.1125 66.4626C44.3458 71.7376 38.8541 71.6709 34.9125 70.6834ZM43.6375 54.0667L43.4208 54.6501C42.8666 56.1376 42.35 57.5209 42.0291 58.8334C39.25 58.8251 36.5416 57.6334 34.4875 55.4876C31.8708 52.7584 30.6833 48.9626 31.225 45.0709C31.9875 39.6209 31.7083 34.8751 31.5583 32.3251L31.5041 31.4084C32.7375 30.3167 38.4458 27.2584 42.5166 28.1917C44.375 28.6167 45.5083 29.8834 45.975 32.0584C48.4125 43.3251 46.3 48.0167 44.6 51.7917C44.2556 52.5393 43.936 53.2981 43.6416 54.0667M74.325 73.1167C74.2583 73.8556 74.1722 74.6834 74.0666 75.6001L73.4583 77.4251C73.4128 77.5709 73.3875 77.7223 73.3833 77.8751C73.3583 79.8542 73.1583 80.5792 72.9041 81.5001C72.4904 82.9355 72.2389 84.4128 72.1541 85.9042C71.6958 91.7959 68.4958 95.1834 62.0833 96.5542C55.7708 97.9084 54.65 94.4876 53.6666 91.4667C53.5637 91.1496 53.4554 90.8343 53.3416 90.5209C52.4458 88.0792 52.55 84.6376 52.6875 79.8751C52.7541 77.5376 52.5833 71.9542 51.3125 68.8501C51.3291 67.6278 51.3555 66.3889 51.3916 65.1334C51.392 64.9741 51.3696 64.8155 51.325 64.6626C51.2793 64.3706 51.2181 64.0813 51.1416 63.7959C50.6333 62.0126 49.3916 60.5209 47.8916 59.9001C47.3 59.6542 46.2125 59.2042 44.9041 59.5376C45.1833 58.3876 45.6666 57.0917 46.1916 55.6834L46.4125 55.0917C46.6625 54.4251 46.9708 53.7376 47.3 53.0084C49.075 49.0584 51.5083 43.6501 48.8666 31.4334C47.8791 26.8584 44.575 24.6251 39.5666 25.1417C36.5666 25.4542 33.8166 26.6667 32.4458 27.3584C32.1709 27.4978 31.8987 27.6423 31.6291 27.7917C32.0125 23.1834 33.4583 14.5667 38.8625 9.11672C39.2634 8.71206 39.6848 8.32822 40.125 7.96672C40.3441 7.9252 40.5508 7.83397 40.7291 7.70005C43.8625 5.32505 47.7916 4.15838 52.4041 4.22922C54.1152 4.25699 55.7458 4.36949 57.2958 4.56672C65.3791 6.04588 70.8125 10.5959 74.1125 14.4959C77.5041 18.5042 79.3416 22.5417 80.075 24.7209C74.5625 24.1626 70.8125 25.25 68.9083 27.9709C64.775 33.8792 71.175 45.3542 74.25 50.8709C74.8125 51.8792 75.3 52.7542 75.4541 53.1209C76.4541 55.5501 77.75 57.1709 78.6958 58.3542C78.9875 58.7167 79.2708 59.0667 79.4833 59.3751C77.8166 59.8584 74.8166 60.9709 75.0875 66.5292C74.984 67.6625 74.8674 68.7945 74.7375 69.9251C74.5458 70.7917 74.45 71.8417 74.325 73.1167ZM78.0291 66.3626C77.8625 62.8959 79.1541 62.5334 80.5166 62.1542L81.0791 61.9834C81.2528 62.1419 81.4396 62.2855 81.6375 62.4126C84.0125 63.9792 88.2333 64.1667 94.1666 62.9709C93.325 63.7084 92.0041 64.6376 90.1958 65.4751C88.4875 66.2667 85.6291 66.8626 82.9166 66.9917C79.9166 67.1334 78.3916 66.6584 78.0291 66.3626ZM80.4041 27.7334C80.3586 29.1324 80.2123 30.5262 79.9666 31.9042C79.7375 33.3959 79.5 34.9375 79.4375 36.8084C79.3791 38.6251 79.6041 40.5167 79.825 42.3501C80.2708 46.0459 80.725 49.8501 78.9625 53.6042C78.6729 53.0839 78.4114 52.5484 78.1791 52.0001C77.7653 51.1238 77.3135 50.2661 76.825 49.4292C74.2583 44.8292 68.2541 34.0542 71.325 29.6626C72.9083 27.4001 76.9166 27.3042 80.4041 27.7334ZM81.3541 56.9542L81 56.5084L80.8541 56.3251C83.8791 51.3251 83.2875 46.3792 82.7583 41.9959C82.5416 40.1959 82.3416 38.4959 82.3916 36.9042C82.4458 35.2084 82.6666 33.7584 82.8833 32.3542C83.15 30.6251 83.425 28.8376 83.3458 26.7292C83.4045 26.4697 83.4214 26.2024 83.3958 25.9376C83.2041 23.9126 80.8958 17.8626 76.1875 12.3834C73.1191 8.76676 69.2963 5.86554 64.9875 3.88338C67.7605 3.31802 70.587 3.05814 73.4166 3.10838C81.9666 3.30005 88.7291 6.50005 93.5166 12.6209C93.618 12.754 93.7112 12.8932 93.7958 13.0376C96.8083 18.6876 92.65 39.1834 81.3541 56.9542ZM44.6166 31.4709C44.5125 32.2209 43.325 33.2334 42.0291 33.2334L41.6916 33.2084C40.846 33.0588 40.0908 32.5886 39.5833 31.8959C39.3916 31.6459 39.0833 31.1542 39.1416 30.7084C39.1601 30.5838 39.2041 30.4644 39.2707 30.3576C39.3374 30.2508 39.4254 30.1589 39.5291 30.0876C40.0208 29.7167 40.9958 29.5792 42.0708 29.7292C43.3875 29.9126 44.7458 30.5334 44.6125 31.4709M77.6541 29.7584C77.7 30.0917 77.45 30.5917 77.0166 31.0501C76.5683 31.5393 75.9705 31.866 75.3166 31.9792L75.0041 32.0001C73.7833 32.0001 72.75 31.0251 72.6708 30.4542C72.5708 29.7167 73.7708 29.1625 75.0041 28.9875C76.2458 28.8125 77.5541 29.0251 77.6541 29.7584Z" fill="#D10033"/>
</g>
<defs>
<clipPath id="clip0_69_47">
<rect width="100" height="100" fill="white"/>
</clipPath>
</defs>
</svg>
