<svg width="100" height="100" viewBox="0 0 100 100" fill="none" xmlns="http://www.w3.org/2000/svg">
<path d="M82.9751 24.5334C68.9167 6.32506 42.7501 2.95839 24.5334 17.0251C6.32506 31.0834 2.95839 57.2501 17.0251 75.4667C31.0876 93.6751 57.2542 97.0417 75.4667 82.9751L75.4751 82.9667C93.6792 68.9001 97.0376 42.7417 82.9751 24.5334ZM72.3126 34.9292L69.0626 31.7292L68.3584 31.0292L68.5542 30.8334L73.4876 26.1751C74.3709 27.2459 74.8542 28.5917 74.8542 29.9876C74.8501 31.6126 74.2001 33.1751 73.0459 34.3251C72.8153 34.5473 72.5709 34.7487 72.3126 34.9292ZM27.9084 69.7417L28.4876 70.2834L31.5084 73.3042L24.7834 72.8667L27.9084 69.7417ZM68.7084 23.8751C70.0626 23.8834 71.3792 24.3334 72.4584 25.1584L67.0417 30.6084C66.9613 30.673 66.8995 30.7579 66.8626 30.8542L66.8584 30.8751L66.8501 30.9001C66.8197 31.0043 66.8213 31.1152 66.8548 31.2185C66.8882 31.3217 66.9519 31.4126 67.0376 31.4792L71.1376 35.5751C70.0162 36.0626 68.774 36.2009 67.5729 35.972C66.3718 35.7431 65.2676 35.1575 64.4042 34.2917C63.5568 33.4363 62.9804 32.35 62.7469 31.1687C62.5135 29.9874 62.6334 28.7636 63.0917 27.6501C63.5489 26.5354 64.3267 25.5815 65.3267 24.9095C66.3266 24.2374 67.5036 23.8774 68.7084 23.8751ZM64.9209 37.4834C64.9133 37.7483 64.8509 38.0087 64.7376 38.2482C64.6243 38.4878 64.4625 38.7012 64.2626 38.8751L48.0334 52.9959L47.9792 53.0417L47.3876 52.4501L47.1292 52.1917L47.0042 52.0667L46.6417 51.7042L46.5042 51.5667L46.2251 51.2876L61.5876 36.0626C61.9008 35.7429 62.3159 35.5428 62.7611 35.4972C63.2063 35.4515 63.6535 35.5631 64.0251 35.8126C64.1356 35.8859 64.2388 35.9696 64.3334 36.0626L64.4876 36.2209C64.6209 36.4209 64.7362 36.6292 64.8334 36.8459C64.8973 37.0542 64.9264 37.2667 64.9209 37.4834ZM46.1792 53.0667L46.2084 53.1459L46.3501 53.2834L46.9584 53.8792L46.7334 53.9084L43.3626 54.3209L43.7792 53.9042L45.4084 52.2792L46.1792 53.0667ZM62.5542 34.3209C61.8594 34.4125 61.2147 34.7319 60.7209 35.2292L45.4084 50.4709L42.4084 47.4709C50.3459 39.5626 55.2001 35.4376 58.2209 34.0834C58.8787 33.6689 59.6491 33.4691 60.4254 33.5116C61.2018 33.5542 61.9457 33.837 62.5542 34.3209ZM41.5209 48.3542L41.5834 48.4167L44.0626 50.8959L37.5959 52.2792L41.5209 48.3542ZM33.0501 68.5959C32.8476 68.6908 32.6846 68.8536 32.5895 69.056C32.4944 69.2584 32.4731 69.4877 32.5292 69.7042L33.2209 72.7251C33.247 72.7607 33.261 72.8038 33.261 72.848C33.261 72.8922 33.247 72.9352 33.2209 72.9709C33.1829 73.0043 33.134 73.0227 33.0834 73.0227C33.0328 73.0227 32.9839 73.0043 32.9459 72.9709L28.8459 68.8376L41.4709 56.0251L48.0084 55.0126L50.4084 57.4126C45.0958 61.8286 39.2671 65.5838 33.0501 68.5959ZM51.5542 56.5126L49.0209 53.9792L64.9751 39.9876C63.8417 44.4876 57.8251 50.5876 51.5542 56.5126ZM73.5334 29.2209C73.4679 29.1108 73.3642 29.0286 73.2419 28.9902C73.1197 28.9518 72.9876 28.9597 72.8709 29.0126C72.8139 29.042 72.7633 29.0825 72.722 29.1315C72.6807 29.1806 72.6494 29.2373 72.6301 29.2985C72.6107 29.3596 72.6036 29.424 72.6092 29.4879C72.6148 29.5518 72.6329 29.614 72.6626 29.6709C72.7822 29.9222 72.8296 30.2018 72.7995 30.4785C72.7693 30.7551 72.6627 31.018 72.4917 31.2376C72.4474 31.2796 72.4128 31.3309 72.3905 31.3878C72.3682 31.4446 72.3586 31.5057 72.3626 31.5667C72.3626 31.6945 72.4042 31.8042 72.4876 31.8959C72.5778 31.928 72.6764 31.928 72.7667 31.8959C72.8478 31.9166 72.9329 31.9147 73.013 31.8905C73.093 31.8663 73.1649 31.8206 73.2209 31.7584C73.5096 31.4093 73.6924 30.9849 73.7477 30.5353C73.8031 30.0857 73.7287 29.6296 73.5334 29.2209Z" fill="#D10033"/>
</svg>
