<svg width="100" height="100" viewBox="0 0 100 100" fill="none" xmlns="http://www.w3.org/2000/svg">
<g clip-path="url(#clip0_69_53)">
<path d="M76.0958 0.0291604C63.0917 -0.58334 52.1625 8.81666 50.2958 21.2042C50.2208 21.7792 50.1083 22.3375 50.0166 22.8917C47.1166 38.3208 33.6166 50.0042 17.4041 50.0042C11.832 50.0153 6.34826 48.6118 1.46665 45.925C1.33787 45.8516 1.19199 45.8135 1.04377 45.8146C0.895549 45.8157 0.750242 45.8559 0.622547 45.9312C0.494852 46.0064 0.389298 46.1141 0.316561 46.2432C0.243824 46.3724 0.206483 46.5184 0.208316 46.6667V100H50V62.5042C50 55.6042 55.575 50.0042 62.4458 50.0042H74.8958C88.9875 50.0042 100.325 38.2667 99.7708 23.9875C99.2708 11.1375 88.8958 0.64166 76.0958 0.0291604Z" fill="#D10033"/>
</g>
<defs>
<clipPath id="clip0_69_53">
<rect width="100" height="100" fill="white"/>
</clipPath>
</defs>
</svg>
