<svg width="58" height="58" viewBox="0 0 58 58" fill="none" xmlns="http://www.w3.org/2000/svg">
<path opacity="0.2" fill-rule="evenodd" clip-rule="evenodd" d="M29.5686 58C45.2718 58 57.9999 45.2719 57.9999 29.5686C57.9999 13.8654 45.2718 1.13721 29.5686 1.13721C13.8654 1.13721 1.13721 13.8654 1.13721 29.5686C1.13721 45.2719 13.8654 58 29.5686 58ZM29.5686 53.451C42.7585 53.451 53.4509 42.7585 53.4509 29.5686C53.4509 16.3787 42.7585 5.68623 29.5686 5.68623C16.3787 5.68623 5.68623 16.3787 5.68623 29.5686C5.68623 42.7585 16.3787 53.451 29.5686 53.451Z" fill="#FF2323" fill-opacity="0.34"/>
<g opacity="0.2">
<path fill-rule="evenodd" clip-rule="evenodd" d="M21.2622 27.9625C20.9752 27.6183 20.7589 27.221 20.6255 26.7931C20.4922 26.3653 20.4444 25.9154 20.4849 25.4691C20.5255 25.0227 20.6536 24.5888 20.8619 24.192C21.0702 23.7952 21.3546 23.4433 21.6989 23.1565L30.797 15.5755C31.4947 15.0219 32.3812 14.7631 33.2672 14.8544C34.1532 14.9457 34.9684 15.3798 35.5386 16.064C36.1088 16.7483 36.3888 17.6284 36.3188 18.5163C36.2488 19.4042 35.8344 20.2296 35.164 20.816L26.066 28.3992C25.3709 28.9781 24.4745 29.2573 23.5737 29.1754C22.6729 29.0935 21.8415 28.6572 21.2622 27.9625Z" fill="#FF2323" fill-opacity="0.34"/>
<path fill-rule="evenodd" clip-rule="evenodd" d="M44.6986 27.9629C44.1193 28.6576 43.2879 29.0938 42.3871 29.1757C41.4863 29.2576 40.5898 28.9784 39.8948 28.3996L30.7968 20.8164C30.4404 20.5336 30.1442 20.1824 29.9255 19.7835C29.7069 19.3845 29.5702 18.9459 29.5236 18.4933C29.477 18.0408 29.5213 17.5835 29.654 17.1484C29.7867 16.7132 30.0051 16.309 30.2964 15.9595C30.5876 15.6101 30.9458 15.3223 31.3499 15.1133C31.754 14.9043 32.1958 14.7782 32.6493 14.7425C33.1028 14.7067 33.5589 14.7621 33.9907 14.9052C34.4226 15.0483 34.8214 15.2763 35.1638 15.5759L44.2619 23.1568C44.6062 23.4437 44.8906 23.7956 45.0989 24.1923C45.3072 24.5891 45.4353 25.0231 45.4758 25.4694C45.5164 25.9157 45.4686 26.3656 45.3352 26.7935C45.2019 27.2213 44.9855 27.6187 44.6986 27.9629Z" fill="#FF2323" fill-opacity="0.34"/>
<path fill-rule="evenodd" clip-rule="evenodd" d="M32.9804 19.333C33.8852 19.333 34.753 19.6925 35.3928 20.3323C36.0327 20.9721 36.3921 21.8399 36.3921 22.7448V40.9409C36.3921 41.8457 36.0327 42.7135 35.3928 43.3534C34.753 43.9932 33.8852 44.3527 32.9804 44.3527C32.0755 44.3527 31.2077 43.9932 30.5679 43.3534C29.9281 42.7135 29.5686 41.8457 29.5686 40.9409V22.7448C29.5686 21.8399 29.9281 20.9721 30.5679 20.3323C31.2077 19.6925 32.0755 19.333 32.9804 19.333Z" fill="#FF2323" fill-opacity="0.34"/>
</g>
<path fill-rule="evenodd" clip-rule="evenodd" d="M18.4599 25.3673C18.267 25.1357 18.1739 24.8368 18.2012 24.5366C18.2285 24.2363 18.3739 23.9592 18.6055 23.7661L27.7035 16.1851C27.8177 16.0853 27.9506 16.0093 28.0946 15.9616C28.2385 15.9138 28.3905 15.8954 28.5417 15.9073C28.6929 15.9192 28.8401 15.9613 28.9748 16.0309C29.1095 16.1006 29.2289 16.1965 29.326 16.313C29.4231 16.4295 29.4959 16.5642 29.5401 16.7093C29.5844 16.8543 29.5991 17.0068 29.5836 17.1576C29.5681 17.3085 29.5225 17.4547 29.4496 17.5877C29.3767 17.7206 29.278 17.8377 29.1592 17.932L20.0612 25.5129C19.8295 25.7059 19.5307 25.7989 19.2304 25.7716C18.9301 25.7443 18.653 25.5989 18.4599 25.3673Z" fill="#FF2323" fill-opacity="0.34"/>
<path fill-rule="evenodd" clip-rule="evenodd" d="M38.4029 25.3673C38.2098 25.5989 37.9326 25.7443 37.6324 25.7716C37.3321 25.7989 37.0333 25.7059 36.8016 25.5129L27.7036 17.932C27.5848 17.8377 27.486 17.7206 27.4132 17.5877C27.3403 17.4547 27.2947 17.3085 27.2792 17.1576C27.2636 17.0068 27.2784 16.8543 27.3227 16.7093C27.3669 16.5642 27.4397 16.4295 27.5368 16.313C27.6339 16.1965 27.7533 16.1006 27.888 16.0309C28.0226 15.9613 28.1699 15.9192 28.3211 15.9073C28.4723 15.8954 28.6243 15.9138 28.7682 15.9616C28.9122 16.0093 29.0451 16.0853 29.1593 16.1851L38.2573 23.7661C38.4889 23.9592 38.6343 24.2363 38.6616 24.5366C38.6889 24.8368 38.5958 25.1357 38.4029 25.3673Z" fill="#FF2323" fill-opacity="0.34"/>
<path fill-rule="evenodd" clip-rule="evenodd" d="M28.4314 17.0586C28.7331 17.0586 29.0223 17.1784 29.2356 17.3917C29.4489 17.605 29.5687 17.8942 29.5687 18.1959V39.8037C29.5687 40.1053 29.4489 40.3946 29.2356 40.6079C29.0223 40.8212 28.7331 40.941 28.4314 40.941C28.1298 40.941 27.8406 40.8212 27.6273 40.6079C27.414 40.3946 27.2942 40.1053 27.2942 39.8037V18.1959C27.2942 17.8942 27.414 17.605 27.6273 17.3917C27.8406 17.1784 28.1298 17.0586 28.4314 17.0586Z" fill="#FF2323" fill-opacity="0.34"/>
<path fill-rule="evenodd" clip-rule="evenodd" d="M28.4314 54.5883C42.8768 54.5883 54.5882 42.8768 54.5882 28.4314C54.5882 13.986 42.8768 2.27451 28.4314 2.27451C13.986 2.27451 2.27451 13.986 2.27451 28.4314C2.27451 42.8768 13.986 54.5883 28.4314 54.5883ZM28.4314 56.8628C44.1346 56.8628 56.8627 44.1346 56.8627 28.4314C56.8627 12.7282 44.1346 0 28.4314 0C12.7282 0 0 12.7282 0 28.4314C0 44.1346 12.7282 56.8628 28.4314 56.8628Z" fill="#FF2323" fill-opacity="0.34"/>
</svg>
